<svg width="33" height="33" viewBox="0 0 33 33" fill="none" xmlns="http://www.w3.org/2000/svg">
<g clip-path="url(#clip0_59_208)">
<path d="M6.875 5.5H12.375L16.5 9.625H26.125C26.8543 9.625 27.5538 9.91473 28.0695 10.4305C28.5853 10.9462 28.875 11.6457 28.875 12.375V23.375C28.875 24.1043 28.5853 24.8038 28.0695 25.3195C27.5538 25.8353 26.8543 26.125 26.125 26.125H6.875C6.14565 26.125 5.44618 25.8353 4.93046 25.3195C4.41473 24.8038 4.125 24.1043 4.125 23.375V8.25C4.125 7.52065 4.41473 6.82118 4.93046 6.30546C5.44618 5.78973 6.14565 5.5 6.875 5.5Z" stroke="white" stroke-width="1.75" stroke-linecap="round" stroke-linejoin="round"/>
</g>
<defs>
<clipPath id="clip0_59_208">
<rect width="33" height="33" fill="white"/>
</clipPath>
</defs>
</svg>
