<svg width="112" height="112" viewBox="0 0 112 112" fill="none" xmlns="http://www.w3.org/2000/svg">
<path d="M99.9189 0.00203845C103.214 -0.0350615 106.042 0.432139 108.033 1.57724C108.536 1.86654 108.994 2.20224 109.393 2.59184L109.401 2.60064C109.951 3.15054 110.393 3.83354 110.746 4.61144C110.878 4.90304 110.999 5.21004 111.107 5.53034L111.213 5.85554C111.482 6.73444 111.674 7.71724 111.794 8.78524C111.974 10.3879 111.997 12.2073 111.864 14.2012C111.776 15.5325 111.616 16.9447 111.392 18.4258C111.335 18.7966 111.275 19.1718 111.21 19.5508L111.003 20.7002C110.619 22.7341 110.12 24.8839 109.502 27.1231L109.229 28.0879C108.733 29.8127 108.168 31.5886 107.535 33.4034C106.269 37.0347 104.726 40.8252 102.91 44.6885C102.456 45.6542 101.985 46.6249 101.496 47.5987C99.5419 51.4923 97.3109 55.4383 94.8009 59.3467C93.5449 61.3017 92.2189 63.247 90.8239 65.1719C88.0339 69.0224 84.9629 72.7942 81.6069 76.3965C81.3979 76.6216 81.1869 76.8468 80.9749 77.0704L80.3359 77.7393C79.9089 78.1832 79.4769 78.6254 79.0399 79.0645L79.0379 79.0655C75.1229 82.9814 70.8989 86.5839 66.4579 89.8711C65.4113 90.6461 64.3514 91.4011 63.2821 92.1411C64.1217 92.6061 64.9579 93.0571 65.7899 93.4921C67.0835 94.1681 68.3659 94.8091 69.6349 95.4121C70.4419 95.7961 71.2489 96.1611 72.0509 96.5191C73.7549 97.2811 75.4279 97.9821 77.0619 98.6181C78.0809 99.0161 79.0889 99.3881 80.0789 99.7401C80.8369 100.01 81.5789 100.269 82.3079 100.51C84.4109 101.205 86.4239 101.786 88.3189 102.277C89.0459 102.466 89.7509 102.642 90.4359 102.801C91.2019 102.978 91.9469 103.138 92.6659 103.282C94.5849 103.667 96.3179 103.936 97.8319 104.097L98.8639 104.192C99.5289 104.245 100.14 104.277 100.693 104.286C102.399 104.316 103.44 104.144 103.892 103.936C103.996 103.701 104.117 103.239 104.189 102.49C104.265 101.712 104.282 100.707 104.221 99.4931C104.166 98.4151 104.05 97.1831 103.859 95.8111C102.999 89.6261 100.647 80.6753 95.7989 70.4239L95.5409 69.8789L95.9029 69.3965C96.4699 68.6401 97.0169 67.8552 97.5609 67.0537L98.5869 65.5127C98.9269 64.9952 99.2639 64.474 99.6029 63.9512L100.551 62.4844L101.336 64.045C104.953 71.2384 107.76 78.5628 109.585 85.1983C110.041 86.8581 110.438 88.4761 110.769 90.0411C111.209 92.1241 111.539 94.1141 111.745 95.9781C111.951 97.8421 112.034 99.5851 111.987 101.175C111.93 103.158 111.667 104.934 111.161 106.417C110.743 107.643 110.16 108.55 109.408 109.318L109.35 109.379L109.282 109.428C109.12 109.546 108.955 109.661 108.787 109.772L108.276 110.096C107.245 110.717 106.136 111.198 104.977 111.522H104.976C103.443 111.95 101.822 112.1 100.172 111.931C93.9349 111.92 85.3389 110.118 75.8809 106.535C74.4199 105.982 72.9349 105.387 71.4349 104.747C66.9355 102.827 62.2898 100.518 57.6425 97.8161C56.0936 96.9161 54.5439 95.9721 52.9999 94.9841C52.6132 94.7371 52.2275 94.4861 51.8427 94.2331L50.6903 93.4681C48.6728 92.1131 46.6674 90.6841 44.6884 89.1781L43.8417 88.5271C43.0914 87.9451 42.3424 87.3531 41.5985 86.7471C38.6296 84.3286 35.737 81.7302 32.9618 78.9541C28.124 74.1145 23.7651 68.8009 19.8866 63.1924C19.7824 63.3802 19.6785 63.5676 19.5761 63.7549C17.7953 67.0106 16.2485 70.2191 14.913 73.3184C14.6457 73.9386 14.3858 74.553 14.1366 75.1612C13.1356 77.6029 12.2709 79.9692 11.5253 82.2276C10.9665 83.9203 10.4758 85.5521 10.0507 87.1091C9.76698 88.1501 9.51038 89.1561 9.28308 90.1251C9.16968 90.6091 9.06338 91.0851 8.96278 91.5531C8.66228 92.9521 8.42148 94.2631 8.23618 95.4741C7.86468 97.9011 7.71778 99.9101 7.74988 101.406C7.76598 102.155 7.82658 102.754 7.91688 103.201C7.97878 103.508 8.04798 103.702 8.09948 103.814C8.17808 103.849 8.30218 103.897 8.48918 103.943C8.72938 104.003 9.03318 104.056 9.40218 104.095L9.79378 104.129L10.3749 104.158C10.5742 104.164 10.7846 104.167 11.0058 104.167L12.5155 104.123C18.4368 103.794 28.9633 101.573 41.494 95.7191L42.037 95.4651L42.5175 95.8251C44.2446 97.1211 46.0867 98.3121 47.9618 99.5261L49.3788 100.443L47.8935 101.245C47.1994 101.62 46.4992 101.987 45.7948 102.344C38.7486 105.916 31.2465 108.568 23.5058 110.217C19.642 111.04 15.7178 111.613 11.7616 111.927C9.74308 112.148 7.68968 111.856 5.82608 111.145C4.70468 110.717 3.64538 110.135 2.70008 109.414L2.64638 109.374L2.59848 109.326C1.24278 107.97 0.50038 105.774 0.20498 103.141C-0.09412 100.474 0.0467779 97.1981 0.607278 93.5041C1.72898 86.11 4.55248 76.9028 9.08968 67.2657C12.7215 59.5517 17.4598 51.5466 23.3212 43.959C24.1562 42.8777 25.0135 41.8044 25.8944 40.7422L26.7831 39.6836C28.1008 38.1324 29.4697 36.6084 30.8856 35.1133C31.5653 34.3954 32.2557 33.6794 32.9618 32.9727L33.6991 32.2422C37.4055 28.6076 41.3788 25.2479 45.5419 22.1661C46.2832 21.6175 47.0317 21.0801 47.7821 20.5508C48.0934 20.3312 48.4063 20.1135 48.7196 19.8965L48.1561 19.585C46.8143 18.8503 45.4791 18.1564 44.1561 17.4991L42.8368 16.8536C42.0394 16.4693 41.2513 16.0972 40.4696 15.7422C38.2005 14.7112 35.9801 13.7946 33.8329 12.9805C32.2275 12.3723 30.6638 11.8216 29.1503 11.3282C28.381 11.0772 27.6258 10.8393 26.8856 10.6172C26.5651 10.521 26.2511 10.4282 25.9413 10.3389V10.3379C25.1729 10.116 24.419 9.91034 23.6825 9.71784V9.71884C18.7892 8.44144 14.7122 7.82884 11.8632 7.72374L11.3104 7.71004H11.3075C10.3335 7.69644 9.55048 7.74784 8.96668 7.84774C8.51558 7.92494 8.25198 8.02004 8.11508 8.08794C8.10748 8.10474 8.09828 8.12334 8.08968 8.14464C8.04878 8.24734 8.00478 8.38924 7.96278 8.57524C7.87828 8.94904 7.81278 9.45464 7.78018 10.0938C7.71508 11.3702 7.78488 13.0998 8.04378 15.2217C8.56118 19.4615 9.82348 25.1915 12.1903 31.8584C12.5543 32.884 12.9426 33.9316 13.3593 34.9971C14.1935 37.1302 15.1396 39.3449 16.203 41.6221L16.4569 42.1651L16.0966 42.6446C15.5932 43.3162 15.1072 44.0104 14.622 44.7198L14.621 44.7188C13.8673 45.8226 13.1339 46.952 12.3974 48.0909L11.4394 49.5713L10.6601 47.9893L9.77918 46.1993L9.77628 46.1924C8.90678 44.3908 8.08738 42.5856 7.32308 40.7891C6.85578 39.6908 6.41078 38.5964 5.98528 37.5098C5.71418 36.8172 5.44998 36.1259 5.19518 35.4375C4.85728 34.5238 4.53588 33.6162 4.22938 32.7178C3.50818 30.6047 2.87168 28.5323 2.32698 26.5235C2.05668 25.5262 1.80868 24.5443 1.58388 23.5811C1.45948 23.0493 1.34178 22.5222 1.23128 22C0.790379 19.9167 0.460681 17.9272 0.254781 16.0625C0.0488809 14.1984 -0.0339219 12.4542 0.0125781 10.8633C0.0354781 10.0693 0.0885779 9.30834 0.179578 8.58704C0.225578 8.22174 0.283278 7.87104 0.345578 7.53624C0.472178 6.85694 0.63578 6.21664 0.83878 5.62114C1.24348 4.43514 1.81428 3.40184 2.59168 2.60754L2.59948 2.59964L2.81138 2.39854C3.32068 1.94124 3.92848 1.56284 4.60928 1.25394C5.96448 0.639639 7.66318 0.277139 9.60538 0.129939C12.0572 -0.0555614 14.9676 0.100739 18.2079 0.580139C21.2257 1.02724 24.5488 1.75774 28.08 2.77544C40.5693 6.37384 55.7578 13.564 69.4409 24.4414L70.8519 25.5801C71.3199 25.9642 71.7869 26.3524 72.2509 26.7452C74.2819 28.464 76.2739 30.2676 78.2099 32.1563L79.0369 32.9707L79.0379 32.9727C83.3799 37.316 87.3299 42.045 90.8969 47.0205C91.3049 47.5884 91.7099 48.1599 92.1099 48.7354C92.9379 47.2421 93.7189 45.7593 94.4499 44.2911L94.9229 43.3311C95.0779 43.0118 95.2309 42.6929 95.3819 42.375L95.9219 41.2217C97.1579 38.5403 98.2359 35.9241 99.1709 33.4112C101.716 26.5703 103.184 20.5011 103.839 15.9375C104.167 13.6535 104.288 11.7677 104.245 10.3623C104.224 9.65864 104.162 9.09724 104.073 8.67784C104.014 8.39544 103.947 8.21664 103.898 8.11044C103.772 8.05504 103.536 7.97494 103.144 7.90534C102.6 7.80914 101.868 7.74914 100.95 7.74524C95.8529 7.72314 85.8329 9.43044 73.5959 14.7569L72.4039 15.2842C71.7399 15.583 71.0709 15.8876 70.3989 16.2051L69.8539 16.4629L69.3719 16.1016C68.9409 15.7784 68.5009 15.4618 68.0559 15.1485C66.7185 14.2077 65.3327 13.3099 63.9276 12.4004L62.4618 11.4522L64.0214 10.668C77.1759 4.05054 90.8319 0.104338 99.9189 0.00203845ZM55.995 24.1963C49.6749 28.2598 43.8543 33.0418 38.4423 38.3487L38.4433 38.3496C33.1468 43.6478 28.3644 49.5661 24.2968 55.8008C28.3591 62.1237 33.1368 67.9464 38.4423 73.3604C43.7389 78.659 49.6585 83.4406 55.8925 87.5101C62.215 83.4449 68.0349 78.663 73.4489 73.3536C78.7439 68.0567 83.5239 62.1375 87.5899 55.9043C83.5279 49.5826 78.7479 43.7635 73.4419 38.3496L72.4129 37.334C67.3831 32.4381 61.8278 28.0038 55.995 24.1963ZM56.4013 40.2803C64.7971 40.4933 71.5199 47.3478 71.5209 55.7979L71.5169 56.1993C71.3079 64.4648 64.6648 71.109 56.4013 71.3184L55.9999 71.3243C47.5507 71.3243 40.6955 64.5985 40.4833 56.1993L40.4784 55.7979C40.4792 47.2132 47.4175 40.2754 55.9999 40.2754L56.4013 40.2803ZM55.9999 48.2168C51.7121 48.2168 48.3095 51.6194 48.3095 55.9092C48.3095 60.1994 51.7121 63.6016 55.9999 63.6016C60.2877 63.6015 63.6903 60.1994 63.6903 55.9092C63.6903 51.6194 60.2876 48.2169 55.9999 48.2168ZM109.587 4.52644C109.629 4.60324 109.671 4.68144 109.711 4.76184C109.67 4.68014 109.628 4.60054 109.585 4.52254L109.587 4.52644ZM7.25088 1.46204C7.21198 1.47024 7.17318 1.47894 7.13468 1.48734C7.29528 1.45194 7.45928 1.41784 7.62688 1.38684L7.25088 1.46204ZM10.1278 1.09774C9.97708 1.10634 9.82758 1.11594 9.68058 1.12704C9.87768 1.11214 10.0783 1.10014 10.2821 1.08994C10.2305 1.09254 10.179 1.09484 10.1278 1.09774Z" fill="white"/>
</svg>
