<svg width="192" height="54" viewBox="0 0 192 54" fill="none" xmlns="http://www.w3.org/2000/svg">
<path d="M80.2686 29.0459H74.7168V26.1309H80.2686C81.2354 26.1309 82.0166 25.9746 82.6123 25.6621C83.208 25.3496 83.6426 24.9199 83.916 24.373C84.1992 23.8164 84.3408 23.1816 84.3408 22.4688C84.3408 21.7949 84.1992 21.165 83.916 20.5791C83.6426 19.9834 83.208 19.5049 82.6123 19.1436C82.0166 18.7822 81.2354 18.6016 80.2686 18.6016H75.8447V37H72.168V15.6719H80.2686C81.9189 15.6719 83.3203 15.9648 84.4727 16.5508C85.6348 17.127 86.5186 17.9277 87.124 18.9531C87.7295 19.9688 88.0322 21.1309 88.0322 22.4395C88.0322 23.8164 87.7295 24.998 87.124 25.9844C86.5186 26.9707 85.6348 27.7275 84.4727 28.2549C83.3203 28.7822 81.9189 29.0459 80.2686 29.0459ZM94.5215 24.168V37H90.9912V21.1504H94.3604L94.5215 24.168ZM99.3701 21.0479L99.3408 24.3291C99.126 24.29 98.8916 24.2607 98.6377 24.2412C98.3936 24.2217 98.1494 24.2119 97.9053 24.2119C97.2998 24.2119 96.7676 24.2998 96.3086 24.4756C95.8496 24.6416 95.4639 24.8857 95.1514 25.208C94.8486 25.5205 94.6143 25.9014 94.4482 26.3506C94.2822 26.7998 94.1846 27.3027 94.1553 27.8594L93.3496 27.918C93.3496 26.9219 93.4473 25.999 93.6426 25.1494C93.8379 24.2998 94.1309 23.5527 94.5215 22.9082C94.9219 22.2637 95.4199 21.7607 96.0156 21.3994C96.6211 21.0381 97.3193 20.8574 98.1104 20.8574C98.3252 20.8574 98.5547 20.877 98.7988 20.916C99.0527 20.9551 99.2432 20.999 99.3701 21.0479ZM100.527 29.251V28.9141C100.527 27.7715 100.693 26.7119 101.025 25.7354C101.357 24.749 101.836 23.8945 102.461 23.1719C103.096 22.4395 103.867 21.873 104.775 21.4727C105.693 21.0625 106.729 20.8574 107.881 20.8574C109.043 20.8574 110.078 21.0625 110.986 21.4727C111.904 21.873 112.681 22.4395 113.315 23.1719C113.95 23.8945 114.434 24.749 114.766 25.7354C115.098 26.7119 115.264 27.7715 115.264 28.9141V29.251C115.264 30.3936 115.098 31.4531 114.766 32.4297C114.434 33.4062 113.95 34.2607 113.315 34.9932C112.681 35.7158 111.909 36.2822 111.001 36.6924C110.093 37.0928 109.062 37.293 107.91 37.293C106.748 37.293 105.708 37.0928 104.79 36.6924C103.882 36.2822 103.11 35.7158 102.476 34.9932C101.841 34.2607 101.357 33.4062 101.025 32.4297C100.693 31.4531 100.527 30.3936 100.527 29.251ZM104.058 28.9141V29.251C104.058 29.9639 104.131 30.6377 104.277 31.2725C104.424 31.9072 104.653 32.4639 104.966 32.9424C105.278 33.4209 105.679 33.7969 106.167 34.0703C106.655 34.3438 107.236 34.4805 107.91 34.4805C108.564 34.4805 109.131 34.3438 109.609 34.0703C110.098 33.7969 110.498 33.4209 110.811 32.9424C111.123 32.4639 111.353 31.9072 111.499 31.2725C111.655 30.6377 111.733 29.9639 111.733 29.251V28.9141C111.733 28.2109 111.655 27.5469 111.499 26.9219C111.353 26.2871 111.118 25.7256 110.796 25.2373C110.483 24.749 110.083 24.3682 109.595 24.0947C109.116 23.8115 108.545 23.6699 107.881 23.6699C107.217 23.6699 106.641 23.8115 106.152 24.0947C105.674 24.3682 105.278 24.749 104.966 25.2373C104.653 25.7256 104.424 26.2871 104.277 26.9219C104.131 27.5469 104.058 28.2109 104.058 28.9141ZM127.158 33.8213V26.2627C127.158 25.6963 127.056 25.208 126.851 24.7979C126.646 24.3877 126.333 24.0703 125.913 23.8457C125.503 23.6211 124.985 23.5088 124.36 23.5088C123.784 23.5088 123.286 23.6064 122.866 23.8018C122.446 23.9971 122.119 24.2607 121.885 24.5928C121.65 24.9248 121.533 25.3008 121.533 25.7207H118.018C118.018 25.0957 118.169 24.4902 118.472 23.9043C118.774 23.3184 119.214 22.7959 119.79 22.3369C120.366 21.8779 121.055 21.5166 121.855 21.2529C122.656 20.9893 123.555 20.8574 124.551 20.8574C125.742 20.8574 126.797 21.0576 127.715 21.458C128.643 21.8584 129.37 22.4639 129.897 23.2744C130.435 24.0752 130.703 25.0811 130.703 26.292V33.3379C130.703 34.0605 130.752 34.71 130.85 35.2861C130.957 35.8525 131.108 36.3457 131.304 36.7656V37H127.686C127.52 36.6191 127.388 36.1357 127.29 35.5498C127.202 34.9541 127.158 34.3779 127.158 33.8213ZM127.671 27.3613L127.7 29.5439H125.166C124.512 29.5439 123.936 29.6074 123.438 29.7344C122.939 29.8516 122.524 30.0273 122.192 30.2617C121.86 30.4961 121.611 30.7793 121.445 31.1113C121.279 31.4434 121.196 31.8193 121.196 32.2393C121.196 32.6592 121.294 33.0449 121.489 33.3965C121.685 33.7383 121.968 34.0068 122.339 34.2021C122.72 34.3975 123.179 34.4951 123.716 34.4951C124.438 34.4951 125.068 34.3486 125.605 34.0557C126.152 33.7529 126.582 33.3867 126.895 32.957C127.207 32.5176 127.373 32.1025 127.393 31.7119L128.535 33.2793C128.418 33.6797 128.218 34.1094 127.935 34.5684C127.651 35.0273 127.28 35.4668 126.821 35.8867C126.372 36.2969 125.83 36.6338 125.195 36.8975C124.57 37.1611 123.848 37.293 123.027 37.293C121.992 37.293 121.069 37.0879 120.259 36.6777C119.448 36.2578 118.813 35.6963 118.354 34.9932C117.896 34.2803 117.666 33.4746 117.666 32.5762C117.666 31.7363 117.822 30.9941 118.135 30.3496C118.457 29.6953 118.926 29.1484 119.541 28.709C120.166 28.2695 120.928 27.9375 121.826 27.7129C122.725 27.4785 123.75 27.3613 124.902 27.3613H127.671ZM140.869 34.4805C141.445 34.4805 141.963 34.3682 142.422 34.1436C142.891 33.9092 143.267 33.5869 143.55 33.1768C143.843 32.7666 144.004 32.293 144.033 31.7559H147.358C147.339 32.7812 147.036 33.7139 146.45 34.5537C145.864 35.3936 145.088 36.0625 144.121 36.5605C143.154 37.0488 142.085 37.293 140.913 37.293C139.702 37.293 138.647 37.0879 137.749 36.6777C136.851 36.2578 136.104 35.6816 135.508 34.9492C134.912 34.2168 134.463 33.3721 134.16 32.415C133.867 31.458 133.721 30.4326 133.721 29.3389V28.8262C133.721 27.7324 133.867 26.707 134.16 25.75C134.463 24.7832 134.912 23.9336 135.508 23.2012C136.104 22.4688 136.851 21.8975 137.749 21.4873C138.647 21.0674 139.697 20.8574 140.898 20.8574C142.168 20.8574 143.281 21.1113 144.238 21.6191C145.195 22.1172 145.947 22.8154 146.494 23.7139C147.051 24.6025 147.339 25.6377 147.358 26.8193H144.033C144.004 26.2334 143.857 25.7061 143.594 25.2373C143.34 24.7588 142.979 24.3779 142.51 24.0947C142.051 23.8115 141.499 23.6699 140.854 23.6699C140.142 23.6699 139.551 23.8164 139.082 24.1094C138.613 24.3926 138.247 24.7832 137.983 25.2812C137.72 25.7695 137.529 26.3213 137.412 26.9365C137.305 27.542 137.251 28.1719 137.251 28.8262V29.3389C137.251 29.9932 137.305 30.6279 137.412 31.2432C137.52 31.8584 137.705 32.4102 137.969 32.8984C138.242 33.377 138.613 33.7627 139.082 34.0557C139.551 34.3389 140.146 34.4805 140.869 34.4805ZM157.334 21.1504V23.7285H148.398V21.1504H157.334ZM150.977 17.2686H154.507V32.6201C154.507 33.1084 154.575 33.4844 154.712 33.748C154.858 34.002 155.059 34.1729 155.312 34.2607C155.566 34.3486 155.864 34.3926 156.206 34.3926C156.45 34.3926 156.685 34.3779 156.909 34.3486C157.134 34.3193 157.314 34.29 157.451 34.2607L157.466 36.9561C157.173 37.0439 156.831 37.1221 156.44 37.1904C156.06 37.2588 155.62 37.293 155.122 37.293C154.312 37.293 153.594 37.1514 152.969 36.8682C152.344 36.5752 151.855 36.1016 151.504 35.4473C151.152 34.793 150.977 33.9238 150.977 32.8398V17.2686ZM163.838 21.1504V37H160.293V21.1504H163.838ZM160.059 16.9902C160.059 16.4531 160.234 16.0088 160.586 15.6572C160.947 15.2959 161.445 15.1152 162.08 15.1152C162.705 15.1152 163.198 15.2959 163.56 15.6572C163.921 16.0088 164.102 16.4531 164.102 16.9902C164.102 17.5176 163.921 17.957 163.56 18.3086C163.198 18.6602 162.705 18.8359 162.08 18.8359C161.445 18.8359 160.947 18.6602 160.586 18.3086C160.234 17.957 160.059 17.5176 160.059 16.9902ZM172.48 37H168.95V19.627C168.95 18.4453 169.17 17.4541 169.609 16.6533C170.059 15.8428 170.698 15.2324 171.528 14.8223C172.358 14.4023 173.34 14.1924 174.473 14.1924C174.824 14.1924 175.171 14.2168 175.513 14.2656C175.854 14.3047 176.187 14.3682 176.509 14.4561L176.421 17.1807C176.226 17.1318 176.011 17.0977 175.776 17.0781C175.552 17.0586 175.308 17.0488 175.044 17.0488C174.507 17.0488 174.043 17.1514 173.652 17.3564C173.271 17.5518 172.979 17.8398 172.773 18.2207C172.578 18.6016 172.48 19.0703 172.48 19.627V37ZM175.747 21.1504V23.7285H166.519V21.1504H175.747ZM182.91 35.2715L187.217 21.1504H190.996L184.639 39.417C184.492 39.8076 184.302 40.2324 184.067 40.6914C183.833 41.1504 183.525 41.585 183.145 41.9951C182.773 42.415 182.31 42.752 181.753 43.0059C181.196 43.2695 180.522 43.4014 179.731 43.4014C179.419 43.4014 179.116 43.3721 178.823 43.3135C178.54 43.2646 178.271 43.2109 178.018 43.1523L178.003 40.457C178.101 40.4668 178.218 40.4766 178.354 40.4863C178.501 40.4961 178.618 40.501 178.706 40.501C179.292 40.501 179.78 40.4277 180.171 40.2812C180.562 40.1445 180.879 39.9199 181.123 39.6074C181.377 39.2949 181.592 38.875 181.768 38.3477L182.91 35.2715ZM180.479 21.1504L184.243 33.0156L184.873 36.7363L182.427 37.3662L176.67 21.1504H180.479Z" fill="white"/>
<g clip-path="url(#clip0_72_681)">
<path d="M27 24.5623C25.6423 24.5623 24.5623 25.6423 24.5623 27C24.5623 28.3577 25.6423 29.4377 27 29.4377C28.3577 29.4377 29.4377 28.3577 29.4377 27C29.4377 25.6423 28.3577 24.5623 27 24.5623Z" fill="white"/>
<path d="M32.0914 32.0914C33.6343 30.5486 35.0228 28.8206 36.1954 27C35.0228 25.1486 33.6343 23.4514 32.0914 21.8777C30.5485 20.3349 28.8205 18.9463 27 17.7737C25.1485 18.9463 23.4514 20.3349 21.8777 21.8777C20.3348 23.4206 18.9463 25.1486 17.7737 26.9691C18.9463 28.8206 20.3348 30.5177 21.8777 32.0914C23.4205 33.6343 25.1485 35.0229 26.9691 36.1954C28.8205 35.0229 30.5177 33.6343 32.0914 32.0914ZM27 31.0423C24.7474 31.0423 22.9268 29.2217 22.9268 26.9691C22.9268 24.7166 24.7474 22.896 27 22.896C29.2525 22.896 31.0731 24.7166 31.0731 26.9691C31.0731 29.2217 29.2525 31.0423 27 31.0423Z" fill="white"/>
<path d="M27 0C12.096 0 0 12.096 0 27C0 41.904 12.096 54 27 54C41.904 54 54 41.904 54 27C54 12.096 41.904 0 27 0ZM41.7806 41.7806C41.1017 42.2743 40.2686 42.5211 39.4046 42.4286C35.208 42.4286 26.9074 39.4354 20.736 33.264C19.2857 31.8137 17.9897 30.2091 16.848 28.512C13.4537 34.4366 12.8057 39.9291 13.3611 40.6389C13.9166 41.0709 17.8971 40.824 23.0503 38.4171C23.544 38.7874 24.0686 39.1269 24.5931 39.4663C21.5074 41.1326 18.0823 42.1509 14.5646 42.4286C13.7314 42.5211 12.8674 42.2743 12.2194 41.7806C10.2137 39.7749 12.96 28.5429 20.736 20.7669C22.1863 19.3166 23.7909 18.0206 25.488 16.8789C19.5634 13.4846 14.0709 12.8057 13.3611 13.392C12.9291 13.9474 13.176 17.9589 15.5829 23.112C15.2126 23.6057 14.8731 24.1303 14.5337 24.6549C11.8491 19.3166 10.7691 13.7314 12.2194 12.2503C14.2251 10.2446 25.4571 12.9909 33.264 20.7669C34.7143 22.2171 36.0103 23.8217 37.152 25.5189C40.5463 19.5943 41.1943 14.1017 40.6389 13.392C40.0834 12.96 36.072 13.176 30.9189 15.6137C30.4251 15.2434 29.9006 14.904 29.376 14.5646C34.7143 11.88 40.2994 10.8 41.7806 12.2503C43.7863 14.256 41.04 25.488 33.264 33.2949C31.8137 34.7451 30.2091 36.0411 28.512 37.1829C34.4366 40.5771 39.9291 41.2251 40.6389 40.6697C41.0709 40.1143 40.8549 36.1029 38.4171 30.9497C38.7874 30.456 39.1269 29.9314 39.4663 29.4069C42.1509 34.7451 43.2309 40.3303 41.7806 41.8114V41.7806Z" fill="white"/>
</g>
<defs>
<clipPath id="clip0_72_681">
<rect width="54" height="54" fill="#f1f5f9"/>
</clipPath>
</defs>
</svg>
