<svg width="184" height="184" viewBox="0 0 184 184" fill="none" xmlns="http://www.w3.org/2000/svg">
<path d="M122.912 0C173.218 1.45075e-05 184 10.7821 184 61.0879V122.912C184 173.218 173.218 184 122.912 184H61.0879C10.7821 184 1.45114e-05 173.218 0 122.912V61.0879C1.59874e-05 10.7821 10.7821 1.59917e-05 61.0879 0H122.912ZM135.919 36.002C126.832 36.1043 113.176 40.0504 100.021 46.668L98.4619 47.4521L99.9277 48.4004C101.333 49.3099 102.719 50.2067 104.056 51.1475V51.1484C104.501 51.4618 104.941 51.7784 105.372 52.1016L105.854 52.4629L106.399 52.2051C107.071 51.8876 107.74 51.583 108.404 51.2842L109.596 50.7568C121.833 45.4304 131.853 43.7231 136.95 43.7451C137.868 43.7491 138.6 43.8091 139.144 43.9053C139.536 43.9748 139.772 44.055 139.898 44.1104C139.947 44.2165 140.014 44.3954 140.073 44.6777C140.162 45.0972 140.224 45.6586 140.245 46.3623C140.288 47.7677 140.167 49.6534 139.839 51.9375C139.184 56.5011 137.716 62.5702 135.171 69.4111C134.236 71.9241 133.159 74.5402 131.922 77.2217L131.382 78.375C131.231 78.6929 131.078 79.0117 130.923 79.3311L130.45 80.291C129.719 81.7593 128.938 83.242 128.11 84.7354C127.71 84.1598 127.305 83.5883 126.897 83.0205C123.33 78.045 119.38 73.3159 115.038 68.9727L115.037 68.9707L114.21 68.1562C112.274 66.2676 110.282 64.464 108.251 62.7451C107.787 62.3524 107.32 61.9641 106.852 61.5801L105.441 60.4414C91.7578 49.564 76.5684 42.3737 64.0791 38.7754H64.0801C60.5489 37.7576 57.2258 37.0271 54.208 36.5801C50.9676 36.1006 48.0573 35.9444 45.6055 36.1299C43.6632 36.2771 41.9657 36.6395 40.6104 37.2539H40.6094C39.9285 37.5628 39.3208 37.9411 38.8115 38.3984L38.5996 38.5996L38.5918 38.6074C37.8144 39.4018 37.2436 40.435 36.8389 41.6211C36.6359 42.2166 36.4723 42.8568 36.3457 43.5361C36.2834 43.871 36.2257 44.2217 36.1797 44.5869C36.0887 45.3083 36.0356 46.0693 36.0127 46.8633C35.9662 48.4542 36.049 50.1983 36.2549 52.0625C36.4608 53.9272 36.7905 55.9167 37.2314 58C37.3419 58.5222 37.4596 59.0493 37.584 59.5811C37.8088 60.5443 38.0568 61.5261 38.3271 62.5234C38.8718 64.5323 39.5083 66.6047 40.2295 68.7178C40.5361 69.6162 40.8574 70.5238 41.1953 71.4375C41.4501 72.1258 41.7143 72.8161 41.9854 73.5088V73.5098C42.4109 74.5964 42.8559 75.6908 43.3232 76.7891C44.0875 78.5856 44.9069 80.3908 45.7764 82.1924L45.7793 82.1992L46.6602 83.9893L47.4395 85.5713L48.3975 84.0908C49.1341 82.9519 49.8673 81.8226 50.6211 80.7188L50.6221 80.7197C51.1074 80.0103 51.5932 79.3162 52.0967 78.6445L52.457 78.165L52.2031 77.6221C51.1397 75.3449 50.1936 73.1302 49.3594 70.9971C48.9427 69.9315 48.5545 68.884 48.1904 67.8584C45.8236 61.1915 44.5613 55.4614 44.0439 51.2217C43.785 49.0997 43.7152 47.3702 43.7803 46.0938C43.8129 45.4545 43.8784 44.949 43.9629 44.5752C44.0049 44.3891 44.0489 44.2473 44.0898 44.1445C44.0984 44.1232 44.1076 44.1047 44.1152 44.0879C44.252 44.02 44.5156 43.9249 44.9668 43.8477C45.5506 43.7478 46.3335 43.6964 47.3076 43.71H47.3105L47.8633 43.7236C50.7123 43.8288 54.7893 44.4414 59.6826 45.7188V45.7178C60.4191 45.9103 61.1729 46.1159 61.9414 46.3379V46.3389C62.2513 46.4282 62.5652 46.521 62.8857 46.6172C63.6259 46.8393 64.3811 47.0771 65.1504 47.3281C66.6639 47.8216 68.2276 48.3713 69.833 48.9795V48.9805C71.9802 49.7946 74.2006 50.7112 76.4697 51.7422C77.2514 52.0972 78.0395 52.4692 78.8369 52.8535L80.1562 53.499C81.4792 54.1563 82.8143 54.8502 84.1562 55.585L84.7197 55.8965C84.4064 56.1134 84.0936 56.3311 83.7822 56.5508C83.0318 57.08 82.2834 57.6175 81.542 58.166C77.3788 61.2479 73.4056 64.6075 69.6992 68.2422L68.9619 68.9727C68.2557 69.6794 67.5654 70.3953 66.8857 71.1133C65.4698 72.6084 64.1009 74.1323 62.7832 75.6836L61.8945 76.7422C61.0136 77.8044 60.1564 78.8777 59.3213 79.959C53.4599 87.5466 48.7216 95.5516 45.0898 103.266C40.5526 112.903 37.7291 122.11 36.6074 129.504C36.0469 133.199 35.906 136.474 36.2051 139.141C36.5005 141.774 37.2429 143.97 38.5986 145.326L38.6465 145.374L38.7002 145.414C39.6455 146.135 40.7038 146.717 41.8252 147.146H41.8262C43.6898 147.856 45.7432 148.148 47.7617 147.927C51.7179 147.613 55.642 147.04 59.5059 146.217C67.2466 144.568 74.7487 141.916 81.7949 138.344C82.4993 137.987 83.1995 137.62 83.8936 137.245L85.3789 136.443L83.9619 135.526C82.0868 134.312 80.2447 133.121 78.5176 131.825L78.0371 131.465L77.4941 131.719C64.9633 137.573 54.4369 139.794 48.5156 140.123L47.0059 140.167C46.7846 140.167 46.5743 140.165 46.375 140.158L45.7939 140.129L45.4023 140.095C45.0333 140.056 44.7295 140.003 44.4893 139.943C44.3023 139.897 44.1782 139.849 44.0996 139.814C44.0481 139.702 43.9789 139.508 43.917 139.201C43.8267 138.754 43.7661 138.155 43.75 137.406C43.7179 135.91 43.8648 133.901 44.2363 131.474C44.4216 130.263 44.6624 128.952 44.9629 127.553C45.0635 127.085 45.1697 126.609 45.2832 126.125C45.5105 125.156 45.7671 124.15 46.0508 123.109C46.476 121.552 46.9666 119.92 47.5254 118.228C48.271 115.969 49.1357 113.603 50.1367 111.161C50.3859 110.553 50.6457 109.939 50.9131 109.318C52.2486 106.219 53.7954 103.011 55.5762 99.7549C55.6786 99.5675 55.7824 99.3802 55.8867 99.1924C59.7652 104.801 64.1241 110.114 68.9619 114.954C71.7371 117.73 74.6297 120.329 77.5986 122.747C78.3425 123.353 79.0915 123.945 79.8418 124.527L80.6885 125.178C82.6675 126.684 84.6729 128.114 86.6904 129.468L87.8428 130.233C88.2276 130.486 88.6133 130.737 89 130.984C90.544 131.972 92.0937 132.916 93.6426 133.816C98.2899 136.518 102.936 138.828 107.435 140.747C108.935 141.387 110.42 141.982 111.881 142.535C121.339 146.118 129.935 147.921 136.172 147.931C137.822 148.1 139.443 147.95 140.976 147.522H140.977C142.136 147.198 143.245 146.717 144.276 146.096L144.787 145.772C144.955 145.661 145.12 145.546 145.282 145.428L145.35 145.379L145.408 145.318C146.16 144.55 146.743 143.643 147.161 142.417C147.667 140.934 147.93 139.159 147.987 137.175C148.034 135.585 147.951 133.842 147.745 131.979C147.539 130.114 147.209 128.124 146.769 126.041C146.438 124.476 146.041 122.858 145.585 121.198C143.76 114.563 140.953 107.238 137.336 100.045L136.551 98.4844L135.603 99.9512C135.264 100.474 134.927 100.995 134.587 101.513L133.561 103.054C133.017 103.855 132.47 104.64 131.903 105.396L131.541 105.879L131.799 106.424C136.647 116.675 138.999 125.626 139.859 131.812C140.05 133.183 140.166 134.415 140.221 135.493C140.282 136.708 140.265 137.712 140.189 138.49C140.117 139.24 139.996 139.702 139.892 139.937C139.44 140.144 138.399 140.316 136.693 140.286C136.14 140.277 135.529 140.245 134.864 140.192L133.832 140.097C132.318 139.936 130.585 139.667 128.666 139.282C127.947 139.138 127.202 138.978 126.436 138.801C125.751 138.642 125.046 138.466 124.319 138.277C122.424 137.786 120.41 137.205 118.307 136.51H118.308C117.579 136.269 116.838 136.01 116.08 135.74H116.079C115.089 135.388 114.081 135.016 113.062 134.618C111.428 133.982 109.755 133.282 108.051 132.521V132.52C107.249 132.161 106.442 131.796 105.635 131.412C104.366 130.809 103.084 130.168 101.79 129.492C100.958 129.057 100.122 128.606 99.2822 128.141C100.352 127.401 101.411 126.646 102.458 125.871C106.899 122.584 111.123 118.981 115.038 115.065L115.04 115.064C115.477 114.625 115.909 114.183 116.336 113.739L116.975 113.07C117.187 112.847 117.398 112.623 117.607 112.397V112.396C120.963 108.794 124.034 105.022 126.824 101.172C128.219 99.2469 129.545 97.3017 130.801 95.3467C133.311 91.4382 135.542 87.4923 137.496 83.5986C137.985 82.6248 138.456 81.6542 138.91 80.6885C140.726 76.8251 142.269 73.0347 143.535 69.4033C144.168 67.5885 144.733 65.8127 145.229 64.0879L145.502 63.123C146.12 60.8838 146.619 58.7341 147.003 56.7002L147.21 55.5508C147.275 55.1717 147.335 54.7966 147.392 54.4258C147.616 52.9446 147.776 51.5324 147.864 50.2012C147.997 48.2072 147.974 46.3878 147.794 44.7852C147.674 43.7171 147.482 42.7344 147.213 41.8555L147.107 41.5303C146.999 41.21 146.878 40.903 146.746 40.6113C146.393 39.8334 145.951 39.1504 145.401 38.6006L145.393 38.5918C144.994 38.2021 144.536 37.8665 144.033 37.5771C142.042 36.432 139.214 35.9648 135.919 36.002ZM135.03 146.909C135.437 146.924 135.835 146.932 136.223 146.932C136.033 146.932 135.84 146.93 135.646 146.927C135.443 146.923 135.238 146.917 135.03 146.909ZM49.8213 141.027C49.3883 141.066 48.9741 141.099 48.5791 141.121C48.9741 141.099 49.3883 141.066 49.8213 141.027ZM53.0166 140.63C52.207 140.756 51.4398 140.858 50.7178 140.938C51.2671 140.877 51.8429 140.806 52.4434 140.719C52.6321 140.691 52.823 140.66 53.0166 140.63ZM55.168 140.256C55.0143 140.285 54.8622 140.316 54.7109 140.344C54.8613 140.316 55.0152 140.285 55.168 140.256ZM91.9951 60.1963C97.8279 64.0037 103.383 68.4381 108.413 73.334L109.442 74.3496C114.748 79.7635 119.528 85.5825 123.59 91.9043C119.524 98.1375 114.744 104.057 109.449 109.354C104.035 114.663 98.2152 119.445 91.8926 123.51C85.6586 119.441 79.739 114.659 74.4424 109.36C69.1369 103.946 64.3592 98.1237 60.2969 91.8008C64.3645 85.566 69.1469 79.6478 74.4434 74.3496L74.4424 74.3486C79.8544 69.0417 85.6749 64.2598 91.9951 60.1963ZM92 76.2754C83.4175 76.2754 76.4793 83.2131 76.4785 91.7979L76.4834 92.1992C76.6956 100.598 83.5508 107.324 92 107.324L92.4014 107.318C100.665 107.109 107.308 100.465 107.517 92.1992L107.521 91.7979C107.52 83.3477 100.797 76.4933 92.4014 76.2803L92 76.2754ZM91.252 106.305L91.625 106.319C91.3293 106.312 91.0361 106.294 90.7451 106.269C90.9133 106.283 91.0822 106.296 91.252 106.305ZM118.835 100.259C118.546 100.627 118.255 100.995 117.961 101.36V101.359C118.255 100.994 118.546 100.627 118.835 100.259ZM119.728 99.1055C119.488 99.4199 119.245 99.7329 119.002 100.045C119.246 99.7329 119.487 99.4198 119.728 99.1055ZM92 84.2168C96.2878 84.2168 99.6904 87.6193 99.6904 91.9092C99.6904 96.1994 96.2878 99.6016 92 99.6016C87.7122 99.6016 84.3096 96.1994 84.3096 91.9092C84.3096 87.6193 87.7122 84.2168 92 84.2168ZM121.439 96.8008C120.912 97.5297 120.376 98.2534 119.83 98.9707C120.376 98.2534 120.912 97.5297 121.439 96.8008ZM122.276 95.6289C122.083 95.9035 121.888 96.1771 121.692 96.4502C121.888 96.1771 122.083 95.9035 122.276 95.6289ZM123.179 94.3281C122.922 94.7047 122.661 95.0792 122.399 95.4531C122.661 95.0792 122.922 94.7047 123.179 94.3281ZM60.71 89.3799C60.4369 89.7802 60.1667 90.1819 59.8994 90.585C59.6322 90.988 59.3677 91.3922 59.1064 91.7979C59.6289 90.9866 60.163 90.1802 60.709 89.3799H60.71ZM100.646 92.8047C100.64 92.8639 100.63 92.9226 100.623 92.9814C100.631 92.9181 100.64 92.8548 100.646 92.791L100.646 92.8047ZM86.1406 85.4609L85.8398 85.7471C86.0357 85.5512 86.241 85.3648 86.4551 85.1885C86.348 85.2767 86.2433 85.3677 86.1406 85.4609ZM89.4004 83.6045V83.6035C89.5299 83.5637 89.6608 83.527 89.793 83.4932C89.6608 83.5271 89.53 83.5646 89.4004 83.6045ZM89.8535 83.4785C89.9649 83.4509 90.0773 83.4257 90.1904 83.4023C90.0773 83.4258 89.9649 83.4508 89.8535 83.4785ZM92.8955 83.2607C92.976 83.2688 93.0559 83.2799 93.1357 83.29C93.0514 83.2793 92.9669 83.2681 92.8818 83.2598L92.8955 83.2607ZM50.4619 79.1973C50.487 79.1617 50.511 79.1253 50.5361 79.0898L50.9141 78.5645C50.7618 78.7739 50.6116 78.9852 50.4619 79.1973ZM57.3789 44.127C57.5553 44.1672 57.7332 44.207 57.9121 44.249C57.7332 44.207 57.5553 44.1672 57.3789 44.127ZM56.3047 43.8906C56.4579 43.9233 56.6123 43.9561 56.7676 43.9902C56.6123 43.9561 56.4579 43.9233 56.3047 43.8906ZM55.207 43.665C55.374 43.6979 55.5423 43.7319 55.7119 43.7666C55.5423 43.7319 55.374 43.6979 55.207 43.665ZM54.1904 43.4727C54.3559 43.5026 54.5229 43.5336 54.6914 43.5654C54.5229 43.5336 54.3559 43.5026 54.1904 43.4727ZM53.2002 43.3008C53.3636 43.3277 53.5286 43.3559 53.6953 43.3848C53.5287 43.3559 53.3636 43.3277 53.2002 43.3008ZM52.252 43.1523C52.4041 43.1748 52.5576 43.1994 52.7129 43.2236C52.5576 43.1994 52.4041 43.1748 52.252 43.1523ZM51.3506 43.0273C51.506 43.0475 51.6632 43.0697 51.8223 43.0918C51.6632 43.0696 51.506 43.0475 51.3506 43.0273ZM145.454 40.2939C145.544 40.4425 145.629 40.5985 145.711 40.7617C145.671 40.6814 145.629 40.6032 145.587 40.5264L145.454 40.2939ZM142.834 38.0898C142.711 38.035 142.585 37.9813 142.455 37.9307C142.585 37.9813 142.711 38.0341 142.834 38.0889V38.0898ZM43.627 37.3867C43.2453 37.4574 42.8815 37.5398 42.5361 37.6328H42.5352C42.7656 37.5708 43.0043 37.514 43.251 37.4619L43.627 37.3867ZM45.6807 37.127C45.8278 37.1158 45.9772 37.1062 46.1279 37.0977C46.1791 37.0947 46.2306 37.0925 46.2822 37.0898C46.0784 37.1001 45.8778 37.112 45.6807 37.127Z" fill="white"/>
</svg>
