<svg width="40" height="40" viewBox="0 0 40 40" fill="none" xmlns="http://www.w3.org/2000/svg">
<g clip-path="url(#clip0_59_196)">
<path d="M8.33325 21.6667C8.33325 23.1988 8.63502 24.7158 9.22132 26.1313C9.80763 27.5468 10.667 28.8329 11.7503 29.9162C12.8337 30.9996 14.1198 31.859 15.5353 32.4453C16.9507 33.0316 18.4678 33.3333 19.9999 33.3333C21.532 33.3333 23.0491 33.0316 24.4646 32.4453C25.88 31.859 27.1661 30.9996 28.2495 29.9162C29.3328 28.8329 30.1922 27.5468 30.7785 26.1313C31.3648 24.7158 31.6666 23.1988 31.6666 21.6667C31.6666 20.1346 31.3648 18.6175 30.7785 17.202C30.1922 15.7866 29.3328 14.5004 28.2495 13.4171C27.1661 12.3337 25.88 11.4744 24.4646 10.8881C23.0491 10.3018 21.532 10 19.9999 10C18.4678 10 16.9507 10.3018 15.5353 10.8881C14.1198 11.4744 12.8337 12.3337 11.7503 13.4171C10.667 14.5004 9.80763 15.7866 9.22132 17.202C8.63502 18.6175 8.33325 20.1346 8.33325 21.6667Z" stroke="#2C3E50" stroke-width="1.75" stroke-linecap="round" stroke-linejoin="round"/>
<path d="M20 16.6667V21.6667H23.3333" stroke="#2C3E50" stroke-width="1.75" stroke-linecap="round" stroke-linejoin="round"/>
<path d="M11.6666 6.66667L7.08325 10" stroke="#2C3E50" stroke-width="1.75" stroke-linecap="round" stroke-linejoin="round"/>
<path d="M28.3333 6.66667L32.9166 10" stroke="#2C3E50" stroke-width="1.75" stroke-linecap="round" stroke-linejoin="round"/>
</g>
<defs>
<clipPath id="clip0_59_196">
<rect width="40" height="40" fill="white"/>
</clipPath>
</defs>
</svg>
