<svg width="33" height="33" viewBox="0 0 33 33" fill="none" xmlns="http://www.w3.org/2000/svg">
<g clip-path="url(#clip0_59_211)">
<path d="M6.875 6.875C6.875 6.14566 7.16473 5.44618 7.68046 4.93046C8.19618 4.41473 8.89565 4.125 9.625 4.125H23.375C24.1043 4.125 24.8038 4.41473 25.3195 4.93046C25.8353 5.44618 26.125 6.14566 26.125 6.875V26.125C26.125 26.8543 25.8353 27.5538 25.3195 28.0695C24.8038 28.5853 24.1043 28.875 23.375 28.875H9.625C8.89565 28.875 8.19618 28.5853 7.68046 28.0695C7.16473 27.5538 6.875 26.8543 6.875 26.125V6.875Z" stroke="#2C3E50" stroke-width="1.75" stroke-linecap="round" stroke-linejoin="round"/>
<path d="M12.375 9.625H20.625" stroke="#2C3E50" stroke-width="1.75" stroke-linecap="round" stroke-linejoin="round"/>
<path d="M12.375 15.125H20.625" stroke="#2C3E50" stroke-width="1.75" stroke-linecap="round" stroke-linejoin="round"/>
<path d="M12.375 20.625H17.875" stroke="#2C3E50" stroke-width="1.75" stroke-linecap="round" stroke-linejoin="round"/>
</g>
<defs>
<clipPath id="clip0_59_211">
<rect width="33" height="33" fill="white"/>
</clipPath>
</defs>
</svg>
